<?xml version="1.0" encoding="iso-8859-1"?>
<!-- Generator: Adobe Illustrator 19.0.0, SVG Export Plug-In . SVG Version: 6.00 Build 0)  -->
<svg version="1.1" id="Layer_1" xmlns="http://www.w3.org/2000/svg" xmlns:xlink="http://www.w3.org/1999/xlink" x="0px" y="0px"
	 viewBox="0 0 512 512" style="enable-background:new 0 0 512 512;" xml:space="preserve">
<g>
	<g>
		<path d="M409.353,503.258c-0.044-0.476-4.483-48.265-18.333-110.055c-22.787-101.665-53.492-164.317-75.697-199.399V162.85
			l25.448-110.275c0.259-1.12,0.265-2.269,0.044-3.373l0.005-0.001L332.27,6.445C331.521,2.697,328.231,0,324.409,0h-25.653
			c-4.427,0-8.017,3.589-8.017,8.017v40.967c-11.791,5.055-24.121,13.702-34.395,28.314c-0.077,0.11-0.335,0.111-0.345,0.111
			c-0.011,0-0.268-0.001-0.345-0.111c-10.273-14.612-22.602-23.258-34.393-28.313V8.017c0-4.427-3.589-8.017-8.017-8.017h-25.652
			c-3.821,0-7.111,2.697-7.861,6.444L171.179,49.2l0.005,0.001c-0.221,1.104-0.215,2.253,0.044,3.373l25.448,110.276l0.001,30.953
			c-22.206,35.082-52.91,97.734-75.698,199.399c-13.85,61.791-18.289,109.58-18.333,110.055c-0.204,2.244,0.545,4.468,2.064,6.132
			c1.519,1.663,3.667,2.61,5.92,2.61H401.37c2.252,0,4.401-0.947,5.92-2.61C408.808,507.726,409.557,505.501,409.353,503.258z
			 M306.772,16.033h11.065l5.234,26.176c-4.512,0.067-10.11,0.507-16.3,1.774V16.033z M194.163,16.033h11.064v27.951
			c-6.189-1.268-11.788-1.708-16.299-1.774L194.163,16.033z M188.995,58.264c12.694,0.284,36.699,4.301,53.542,28.256
			c3.047,4.334,8.08,6.922,13.462,6.922c5.382,0,10.413-2.588,13.461-6.922c16.958-24.119,40.877-28.073,53.555-28.301
			l-22.086,95.701H211.07L188.995,58.264z M299.291,169.954v18.171h-86.58v-18.171H299.291z M119.564,495.967
			c4.438-37.788,25.666-189.61,89.549-291.808h11.888l-15.682,101.929c-0.673,4.376,2.328,8.47,6.704,9.143
			c0.414,0.063,0.824,0.094,1.229,0.094c3.89,0,7.304-2.836,7.913-6.798l16.058-104.368h10.759v163.006
			c0,4.427,3.589,8.017,8.017,8.017c4.427,0,8.017-3.589,8.017-8.017V204.159h10.759l16.056,104.368
			c0.609,3.964,4.024,6.798,7.913,6.798c0.405,0,0.816-0.031,1.229-0.094c4.376-0.673,7.378-4.766,6.704-9.143l-15.681-101.929
			h11.889c63.843,102.138,85.101,254.008,89.548,291.808H119.564z"/>
	</g>
</g>
<g>
</g>
<g>
</g>
<g>
</g>
<g>
</g>
<g>
</g>
<g>
</g>
<g>
</g>
<g>
</g>
<g>
</g>
<g>
</g>
<g>
</g>
<g>
</g>
<g>
</g>
<g>
</g>
<g>
</g>
</svg>
