<?xml version="1.0" encoding="iso-8859-1"?>
<!-- Generator: Adobe Illustrator 19.0.0, SVG Export Plug-In . SVG Version: 6.00 Build 0)  -->
<svg version="1.1" id="Layer_1" xmlns="http://www.w3.org/2000/svg" xmlns:xlink="http://www.w3.org/1999/xlink" x="0px" y="0px"
	 viewBox="0 0 512 512" style="enable-background:new 0 0 512 512;" xml:space="preserve">
<g>
	<g>
		<path d="M464.932,213.02c7.439-41.37,5.48-95.992-12.892-117.327c-17.325-20.121-66.121-38.28-79.168-42.879l-19.465-38.928
			C349.126,5.321,340.517,0,330.941,0H181.058c-9.575,0-18.185,5.321-22.467,13.885l-19.465,38.929
			c-13.047,4.598-61.843,22.758-79.168,42.879c-18.372,21.335-20.331,75.957-12.891,117.327c-2.235,9.554-11.871,55.029-3.075,94.92
			c-0.506,7.686-3.135,49.172-2.111,64.388c0.853,12.664,4.765,23.667,11.218,32.256l-0.986,31.318
			c-0.443,9.887,4.98,19.135,13.83,23.576c0.1,0.051,0.203,0.099,0.306,0.146l62.016,27.899v7.91
			c0,9.136,7.432,16.568,16.568,16.568h222.33c9.136,0,16.568-7.432,16.568-16.568v-7.91l62.017-27.9
			c0.104-0.047,0.204-0.095,0.306-0.146c8.872-4.451,14.299-13.733,13.826-23.675l-1.56-30.472
			c6.796-8.693,10.919-19.965,11.796-33.001c1.024-15.216-1.605-56.702-2.111-64.388
			C476.803,268.049,467.167,222.574,464.932,213.02z M449.225,209.713l-43.596,18.11c-1.164-5.299-2.722-10.684-4.795-16.09v-32.646
			c0.018-1.529,0.933-36.527,42.894-66.964C453.271,131.091,455.854,172.448,449.225,209.713z M433.201,99.962
			c-47.818,35.325-48.399,77.237-48.399,79.078v26.188H264.016v-79.486c44.363-10.122,91.537-46.563,104.797-57.365
			C384.971,74.118,416.563,86.945,433.201,99.962z M387.085,306.772c3.494,11.296,10.447,40.02,2.312,69.478H264.016v-69.478
			H387.085z M264.016,290.739v-69.478h123.185c9.785,29.31,3.234,58.145-0.155,69.478H264.016z M339.219,21.576
			c0.022-0.029,0.041-0.059,0.063-0.089l17.847,35.693c-13.82,11.041-55.044,42.094-93.113,52.073V89.4
			C275.528,81.938,310.137,57.93,339.219,21.576z M143.185,68.377c13.261,10.803,60.433,47.242,104.796,57.364v79.486H127.198
			V179.04c0-1.841-0.581-43.753-48.398-79.077C95.43,86.958,127.025,74.125,143.185,68.377z M68.27,112.123
			c41.962,30.437,42.877,65.434,42.894,66.917v32.693c-2.073,5.406-3.632,10.792-4.795,16.09l-43.596-18.11
			C56.145,172.447,58.727,131.091,68.27,112.123z M60.739,226.228l43.205,17.948c-2.032,25.58,4.103,46.902,6.709,54.571
			c-1.408,4.089-3.866,12.095-5.672,22.561L59.19,302.286C53.571,274.225,57.761,242.541,60.739,226.228z M57.879,371.25
			c-0.711-10.558,0.573-36.305,1.456-51.543l43.693,18.151c-0.889,14.091,0.089,30.441,5.389,46.996
			c-0.887,5.076-3.12,18.581-4.07,30.878L79.285,405.32C62.178,398.214,58.53,380.924,57.879,371.25z M73.007,445.081
			c-3.134-1.634-5.043-4.95-4.874-8.489c0.002-0.043,0.003-0.085,0.004-0.128l0.581-18.465c1.429,0.767,2.888,1.494,4.414,2.128
			l31.276,12.993c1.5,11.031,6.357,21.221,14.061,29.245c2.451,2.553,5.122,4.806,7.966,6.753L73.007,445.081z M247.983,495.967
			H144.835c-0.295,0-0.534-0.241-0.534-0.534V476.73c3.367,0.701,6.833,1.066,10.362,1.066h93.321V495.967z M247.983,461.762
			h-93.321c-19.47,0-34.721-15.811-34.721-35.996c0-10.189,2.128-25.022,3.492-33.482h124.55V461.762z M247.983,376.251H122.602
			c-8.088-29.348-1.152-58.159,2.325-69.478h123.056V376.251z M247.983,290.739h-123.03c-3.392-11.343-9.939-40.173-0.156-69.478
			h123.186V290.739z M247.983,109.252c-38.027-9.976-79.283-41.035-93.112-52.074l17.845-35.689c0.022,0.029,0.041,0.06,0.064,0.089
			c29.082,36.354,63.692,60.362,75.203,67.823V109.252z M188.972,16.033h134.053c-26.014,31.039-56.202,52.302-67.03,59.435
			C245.174,68.348,215.035,47.136,188.972,16.033z M367.699,495.432c0,0.294-0.241,0.534-0.534,0.534H264.016v-18.171h93.322
			c3.528,0,6.995-0.365,10.361-1.066V495.432z M357.338,461.762h-93.322v-69.478h124.55c1.364,8.456,3.492,23.279,3.492,33.482
			C392.058,445.951,376.807,461.762,357.338,461.762z M438.992,445.081l-53.432,24.038c2.845-1.948,5.517-4.201,7.969-6.754
			c7.703-8.024,12.562-18.214,14.061-29.245l31.275-12.992c1.399-0.581,2.743-1.239,4.061-1.931l0.942,18.398
			C444.035,440.131,442.126,443.447,438.992,445.081z M454.119,371.25c-0.65,9.673-4.298,26.964-21.405,34.07l-25.062,10.412
			c-0.95-12.299-3.184-25.802-4.071-30.878c5.301-16.555,6.279-32.905,5.39-46.996l43.693-18.151
			C453.547,334.944,454.831,360.689,454.119,371.25z M452.81,302.286l-45.791,19.022c-1.805-10.467-4.264-18.473-5.672-22.561
			c2.606-7.669,8.74-28.992,6.708-54.571l43.206-17.948C454.239,242.542,458.429,274.226,452.81,302.286z"/>
	</g>
</g>
<g>
</g>
<g>
</g>
<g>
</g>
<g>
</g>
<g>
</g>
<g>
</g>
<g>
</g>
<g>
</g>
<g>
</g>
<g>
</g>
<g>
</g>
<g>
</g>
<g>
</g>
<g>
</g>
<g>
</g>
</svg>
