<?xml version="1.0" encoding="iso-8859-1"?>
<!-- Generator: Adobe Illustrator 17.1.0, SVG Export Plug-In . SVG Version: 6.00 Build 0)  -->
<!DOCTYPE svg PUBLIC "-//W3C//DTD SVG 1.1//EN" "http://www.w3.org/Graphics/SVG/1.1/DTD/svg11.dtd">
<svg version="1.1" id="Capa_1" xmlns="http://www.w3.org/2000/svg" xmlns:xlink="http://www.w3.org/1999/xlink" x="0px" y="0px"
	 viewBox="0 0 442 442" style="enable-background:new 0 0 442 442;" xml:space="preserve">
<path d="M346.25,0H95.75c-5.523,0-10,4.477-10,10v42.736c0,2.535,0.962,4.975,2.693,6.827l67.376,72.108
	c1.899,2.033,4.549,3.173,7.306,3.173c0.294,0,0.589-0.013,0.884-0.039c3.067-0.272,5.837-1.941,7.511-4.525l6.651-10.27
	l11.194,25.945L167.14,396.851c-0.299,3.378,1.134,6.678,3.808,8.765l43.899,34.267c1.808,1.412,3.981,2.117,6.153,2.117
	s4.345-0.706,6.153-2.117l43.899-34.267c2.673-2.087,4.107-5.387,3.808-8.765l-22.225-250.897l11.194-25.945l6.651,10.27
	c1.673,2.584,4.444,4.253,7.511,4.525c0.295,0.026,0.59,0.039,0.884,0.039c2.756,0,5.406-1.14,7.306-3.173l67.376-72.108
	c1.731-1.852,2.693-4.292,2.693-6.827V10C356.25,4.477,351.773,0,346.25,0z M221,419.314l-33.458-26.117l21.161-238.882h24.595
	l21.161,238.882L221,419.314z M235.874,134.315h-29.749l-14.883-34.493l13.744-21.224h32.026l13.744,21.224L235.874,134.315z
	 M280.308,108.662l-9.821-15.166c-0.009-0.014-0.018-0.028-0.027-0.042l-13.839-21.371l48.399-27.323
	c4.81-2.715,6.507-8.814,3.792-13.624c-2.715-4.809-8.814-6.507-13.624-3.792l-55.364,31.255h-37.647l-55.364-31.255
	c-4.809-2.716-10.91-1.018-13.624,3.792c-2.715,4.81-1.018,10.909,3.792,13.624l48.399,27.323L171.54,93.453
	c-0.009,0.014-0.018,0.028-0.027,0.042l-9.821,15.166L105.75,48.791V20h230.5v28.791L280.308,108.662z"/>
<g>
</g>
<g>
</g>
<g>
</g>
<g>
</g>
<g>
</g>
<g>
</g>
<g>
</g>
<g>
</g>
<g>
</g>
<g>
</g>
<g>
</g>
<g>
</g>
<g>
</g>
<g>
</g>
<g>
</g>
</svg>
