<svg height="366pt" viewBox="-58 0 366 366.00022" width="366pt" xmlns="http://www.w3.org/2000/svg"><path d="m43.4375 295.375 4.925781 50.335938c1.089844 11.53125 10.789063 20.324218 22.371094 20.289062h108.121094c11.578125.035156 21.277343-8.757812 22.371093-20.289062l4.925782-50.335938c-48.519532 35.226562-114.195313 35.226562-162.714844 0zm0 0"/><path d="m124.792969 58.207031c-68.921875 0-124.792969 55.871094-124.792969 124.792969s55.871094 124.792969 124.792969 124.792969 124.796875-55.871094 124.796875-124.792969-55.875-124.792969-124.796875-124.792969zm0 221.152344c-53.21875 0-96.359375-43.140625-96.359375-96.359375s43.144531-96.359375 96.363281-96.359375c53.214844 0 96.359375 43.140625 96.359375 96.359375s-43.144531 96.359375-96.363281 96.359375zm0 0"/><path d="m124.792969 100.640625c-45.484375 0-82.359375 36.875-82.359375 82.359375 0 45.488281 36.875 82.359375 82.363281 82.359375 45.484375 0 82.359375-36.875 82.359375-82.359375 0-45.488281-36.875-82.359375-82.363281-82.359375zm37.101562 89.359375h-37.101562c-3.863281 0-7-3.132812-7-7v-48.460938c0-3.867187 3.136719-7 7-7 3.867187 0 7 3.132813 7 7v41.460938h30.101562c3.867188 0 7 3.132812 7 7s-3.132812 7-7 7zm0 0"/><path d="m206.152344 70.625-4.925782-50.335938c-1.09375-11.53125-10.792968-20.3242182-22.371093-20.289062h-108.121094c-11.582031-.0351562-21.28125 8.757812-22.371094 20.289062l-4.925781 50.335938c48.519531-35.226562 114.195312-35.226562 162.714844 0zm0 0"/></svg>